<svg width="122" height="122" viewBox="0 0 122 122" fill="none" xmlns="http://www.w3.org/2000/svg">
<path fill-rule="evenodd" clip-rule="evenodd" d="M122 61C122 94.6875 94.6875 122 61 122C27.3125 122 0 94.6875 0 61C0 27.3125 27.3125 0 61 0C94.6945 0 122 27.3125 122 61ZM30.0948 63.0496L30.3579 62.636L46.2265 37.8117C46.4584 37.4482 47.0036 37.4859 47.1792 37.8806C49.8301 43.822 52.1177 51.211 51.046 55.8111C50.5885 57.7037 49.335 60.2671 47.9249 62.636C47.7432 62.9807 47.5426 63.3192 47.3295 63.6451C47.2293 63.7954 47.06 63.8833 46.8782 63.8833H30.5586C30.1198 63.8833 29.8629 63.4069 30.0948 63.0496ZM100.826 71.5919V67.6624C100.826 67.2989 100.475 67.0356 100.131 67.1359L81.5734 72.5007C81.4731 72.5257 81.3854 72.5821 81.3165 72.6574C79.3308 74.8507 77.6428 76.3235 77.1936 76.7155L77.1613 76.7436C76.0082 77.7212 74.5793 78.2539 73.0752 78.2539H66.3568V71.4039H71.6963C71.8341 71.4039 71.9658 71.3537 72.0661 71.266L72.7555 70.633C73.0501 70.3635 73.401 70.0376 73.8208 69.6177C73.8555 69.5831 73.8905 69.5481 73.926 69.5128C74.1476 69.2921 74.3845 69.056 74.6168 68.7968C74.8926 68.5273 75.162 68.2265 75.4128 67.9319C75.8326 67.4806 76.2337 67.0105 76.6537 66.5155C76.9545 66.1896 77.2302 65.8198 77.4997 65.45C77.8006 65.0991 78.0952 64.7043 78.3709 64.3283C78.4733 64.1778 78.5823 64.0257 78.6937 63.8703C78.8003 63.7214 78.9091 63.5695 79.0164 63.4132C79.2169 63.1124 79.4175 62.7927 79.5867 62.4919C80.1132 61.6772 80.5581 60.806 80.9341 59.9349C81.1068 59.5617 81.2449 59.1687 81.3791 58.7867C81.3959 58.7389 81.4126 58.6913 81.4293 58.6439C81.5796 58.1989 81.705 57.7791 81.799 57.334C82.0247 56.2874 82.0748 55.247 81.9745 54.2068C81.9494 53.8809 81.9244 53.5613 81.8491 53.2603V53.2103C81.8241 52.9972 81.774 52.759 81.705 52.5397C81.4795 51.5244 81.1284 50.5091 80.6835 49.5126C80.533 49.1428 80.3576 48.7668 80.1884 48.4221C79.7873 47.6764 79.3674 46.9306 78.891 46.2098C78.7955 46.0576 78.6899 45.9034 78.5845 45.7495C78.5033 45.6309 78.4222 45.5124 78.3458 45.3951C78.0447 44.9306 77.7061 44.4827 77.3776 44.0482C77.3027 43.9492 77.2284 43.8508 77.1551 43.7531C76.9603 43.4975 76.7471 43.2418 76.5326 42.9844C76.4158 42.8443 76.2985 42.7037 76.1836 42.5623C75.8577 42.1674 75.5381 41.7914 75.2122 41.4217C74.0466 40.1056 72.8244 38.9147 71.734 37.8996C71.5333 37.699 71.314 37.4985 71.0885 37.3041C70.2423 36.5333 69.4715 35.8627 68.826 35.3425C68.6309 35.1924 68.4561 35.0447 68.2934 34.9072C68.1842 34.8149 68.0805 34.7273 67.9799 34.6468C67.7827 34.5 67.6118 34.3698 67.4686 34.2606C67.3796 34.1928 67.3013 34.1332 67.2341 34.0827C67.1839 34.0452 67.1275 34.0201 67.0711 34.0013L66.3568 33.8008V27.8846C66.3568 26.9194 65.9681 26.0546 65.3477 25.4215C64.7272 24.7885 63.8624 24.4 62.9097 24.4C61.0045 24.4 59.4628 25.9605 59.4628 27.8846V31.8705L59.1056 31.7702L58.1341 31.4944L57.2505 31.25C57.2479 31.25 57.2453 31.2489 57.2422 31.2477C57.2379 31.2459 57.2327 31.2438 57.2255 31.2438H57.2066L50.5007 29.4263C50.2061 29.3448 49.9555 29.6644 50.1059 29.9339L51.1775 31.9144C51.2383 32.0663 51.3153 32.2183 51.3944 32.3745C51.4457 32.4759 51.498 32.5791 51.5473 32.6852C51.7229 33.0362 51.8983 33.4059 52.0676 33.7757C52.2179 34.1016 52.3684 34.4212 52.5438 34.7722C52.617 34.9359 52.6916 35.1017 52.7673 35.2697C53.048 35.8929 53.3431 36.5482 53.6343 37.2541L53.6367 37.2598C53.8866 37.8532 54.1364 38.4468 54.3551 39.0652C54.9567 40.6257 55.527 42.2928 56.0221 44.0038C56.1452 44.3863 56.2437 44.7566 56.3434 45.1319C56.3859 45.2914 56.4285 45.4518 56.4734 45.6144L56.5423 45.9152C56.7429 46.7112 56.9183 47.5008 57.0437 48.2968C57.144 48.842 57.2379 49.3622 57.2881 49.8886L57.2881 49.8888C57.3633 50.4841 57.4386 51.0794 57.4635 51.6747C57.5137 52.2201 57.5387 52.7904 57.5387 53.3356C57.5387 54.7269 57.4135 56.0681 57.1189 57.334C57.1006 57.4015 57.0823 57.4697 57.0639 57.5385C56.9812 57.8472 56.8954 58.1673 56.7929 58.4747C56.7003 58.8035 56.5803 59.1323 56.4557 59.4738C56.4117 59.5944 56.3671 59.7166 56.3229 59.8409C56.3149 59.8625 56.3069 59.8841 56.2988 59.9057C56.2064 60.1546 56.1124 60.4078 55.9971 60.6557C55.3766 62.1472 54.6057 63.6326 53.8097 65.0238C52.6441 67.0858 51.4721 68.8971 50.6511 70.0627C50.6007 70.1383 50.5515 70.2102 50.5042 70.2795C50.4456 70.3652 50.3898 70.4468 50.3377 70.5264C50.0809 70.89 50.344 71.4039 50.789 71.4039H59.4628V78.2539H50.6887C48.3323 78.2539 46.1512 76.919 45.0984 74.7819C44.5532 73.7102 44.3401 72.532 44.4655 71.3788C44.4968 71.0341 44.2398 70.7082 43.8888 70.7082H26.1652C25.8644 70.7082 25.62 70.9526 25.62 71.2534V71.617C25.62 82.923 34.7513 92.0856 46.0196 92.0856H77.8131C83.7728 92.0856 87.1569 86.6547 90.483 81.3168C91.4102 79.8288 92.3329 78.3481 93.3056 76.9942C95.0541 74.5626 99.2595 72.6323 100.488 72.1058C100.688 72.0181 100.826 71.8175 100.826 71.5919Z" fill="white"/>
</svg>
